<?xml version="1.0" standalone="yes"?>
<!-- SVG graphic -->
<svg xmlns='http://www.w3.org/2000/svg' xmlns:xlink='http://www.w3.org/1999/xlink'
width="75px" height="75px" preserveAspectRatio="xMinYMin meet" viewBox="0 0 75 75" version="1.1">
<rect x="5" y="0" width="2.5" height="2.5" fill="rgb(161,0,93)" opacity="1"/>
<rect x="10" y="0" width="2.5" height="2.5" fill="rgb(141,0,113)" opacity="1"/>
<rect x="15" y="0" width="2.5" height="2.5" fill="rgb(130,0,124)" opacity="1"/>
<rect x="20" y="0" width="2.5" height="2.5" fill="rgb(123,0,131)" opacity="1"/>
<rect x="25" y="0" width="2.5" height="2.5" fill="rgb(50,0,204)" opacity="1"/>
<rect x="10" y="5" width="2.5" height="2.5" fill="rgb(169,0,85)" opacity="1"/>
<rect x="15" y="5" width="2.5" height="2.5" fill="rgb(161,0,93)" opacity="1"/>
<rect x="20" y="5" width="2.5" height="2.5" fill="rgb(109,0,145)" opacity="1"/>
<rect x="25" y="5" width="2.5" height="2.5" fill="rgb(77,0,177)" opacity="1"/>
<rect x="30" y="5" width="2.5" height="2.5" fill="rgb(20,0,234)" opacity="1"/>
<rect x="15" y="10" width="2.5" height="2.5" fill="rgb(222,0,32)" opacity="1"/>
<rect x="20" y="10" width="2.5" height="2.5" fill="rgb(125,0,129)" opacity="1"/>
<rect x="25" y="10" width="2.5" height="2.5" fill="rgb(111,0,143)" opacity="1"/>
<rect x="30" y="10" width="2.5" height="2.5" fill="rgb(63,0,191)" opacity="1"/>
<rect x="35" y="10" width="2.5" height="2.5" fill="rgb(14,0,240)" opacity="1"/>
<rect x="20" y="15" width="2.5" height="2.5" fill="rgb(119,0,135)" opacity="1"/>
<rect x="25" y="15" width="2.5" height="2.5" fill="rgb(113,0,141)" opacity="1"/>
<rect x="30" y="15" width="2.5" height="2.5" fill="rgb(96,0,158)" opacity="1"/>
<rect x="35" y="15" width="2.5" height="2.5" fill="rgb(54,0,200)" opacity="1"/>
<rect x="25" y="20" width="2.5" height="2.5" fill="rgb(255,0,0)" opacity="1"/>
<rect x="30" y="20" width="2.5" height="2.5" fill="rgb(150,0,104)" opacity="1"/>
<rect x="35" y="20" width="2.5" height="2.5" fill="rgb(80,0,174)" opacity="1"/>
<rect x="40" y="20" width="2.5" height="2.5" fill="rgb(85,0,169)" opacity="1"/>
<rect x="45" y="20" width="2.5" height="2.5" fill="rgb(15,0,239)" opacity="1"/>
<rect x="30" y="25" width="2.5" height="2.5" fill="rgb(254,0,0)" opacity="1"/>
<rect x="35" y="25" width="2.5" height="2.5" fill="rgb(132,0,122)" opacity="1"/>
<rect x="40" y="25" width="2.5" height="2.5" fill="rgb(107,0,147)" opacity="1"/>
<rect x="45" y="25" width="2.5" height="2.5" fill="rgb(71,0,183)" opacity="1"/>
<rect x="50" y="25" width="2.5" height="2.5" fill="rgb(40,0,214)" opacity="1"/>
<rect x="35" y="30" width="2.5" height="2.5" fill="rgb(239,0,15)" opacity="1"/>
<rect x="40" y="30" width="2.5" height="2.5" fill="rgb(125,0,129)" opacity="1"/>
<rect x="45" y="30" width="2.5" height="2.5" fill="rgb(111,0,143)" opacity="1"/>
<rect x="50" y="30" width="2.5" height="2.5" fill="rgb(92,0,162)" opacity="1"/>
<rect x="55" y="30" width="2.5" height="2.5" fill="rgb(58,0,196)" opacity="1"/>
<rect x="40" y="35" width="2.5" height="2.5" fill="rgb(116,0,138)" opacity="1"/>
<rect x="45" y="35" width="2.5" height="2.5" fill="rgb(124,0,130)" opacity="1"/>
<rect x="50" y="35" width="2.5" height="2.5" fill="rgb(136,0,118)" opacity="1"/>
<rect x="55" y="35" width="2.5" height="2.5" fill="rgb(111,0,143)" opacity="1"/>
<rect x="45" y="40" width="2.5" height="2.5" fill="rgb(203,0,51)" opacity="1"/>
<rect x="50" y="40" width="2.5" height="2.5" fill="rgb(135,0,119)" opacity="1"/>
<rect x="55" y="40" width="2.5" height="2.5" fill="rgb(76,0,178)" opacity="1"/>
<rect x="50" y="45" width="2.5" height="2.5" fill="rgb(160,0,94)" opacity="1"/>
<rect x="55" y="45" width="2.5" height="2.5" fill="rgb(105,0,149)" opacity="1"/>
<rect x="55" y="50" width="2.5" height="2.5" fill="rgb(139,0,115)" opacity="1"/>
<text x="65" y="5" font-size="5" fill="black">0</text>
<text x="65" y="55" font-size="5" fill="black">12</text>
<polyline points="65,10,65,50" stroke="black" stroke-width="1" fill="none" opacity="1"/>
<text x="5" y="65" font-size="5" fill="black">0</text>
<text x="55" y="65" font-size="5" fill="black">12</text>
<polyline points="10,65,50,65" stroke="black" stroke-width="1" fill="none" opacity="1"/>
</svg>