<?xml version="1.0" standalone="yes"?>
<!-- SVG graphic -->
<svg xmlns='http://www.w3.org/2000/svg' xmlns:xlink='http://www.w3.org/1999/xlink'
width="75px" height="75px" preserveAspectRatio="xMinYMin meet" viewBox="0 0 75 75" version="1.1">
<rect x="5" y="0" width="2.5" height="2.5" fill="rgb(160,0,94)" opacity="1"/>
<rect x="10" y="0" width="2.5" height="2.5" fill="rgb(140,0,114)" opacity="1"/>
<rect x="15" y="0" width="2.5" height="2.5" fill="rgb(130,0,124)" opacity="1"/>
<rect x="20" y="0" width="2.5" height="2.5" fill="rgb(122,0,132)" opacity="1"/>
<rect x="25" y="0" width="2.5" height="2.5" fill="rgb(51,0,203)" opacity="1"/>
<rect x="10" y="5" width="2.5" height="2.5" fill="rgb(171,0,83)" opacity="1"/>
<rect x="15" y="5" width="2.5" height="2.5" fill="rgb(163,0,91)" opacity="1"/>
<rect x="20" y="5" width="2.5" height="2.5" fill="rgb(108,0,146)" opacity="1"/>
<rect x="25" y="5" width="2.5" height="2.5" fill="rgb(78,0,176)" opacity="1"/>
<rect x="30" y="5" width="2.5" height="2.5" fill="rgb(20,0,234)" opacity="1"/>
<rect x="15" y="10" width="2.5" height="2.5" fill="rgb(220,0,34)" opacity="1"/>
<rect x="20" y="10" width="2.5" height="2.5" fill="rgb(127,0,127)" opacity="1"/>
<rect x="25" y="10" width="2.5" height="2.5" fill="rgb(111,0,143)" opacity="1"/>
<rect x="30" y="10" width="2.5" height="2.5" fill="rgb(63,0,191)" opacity="1"/>
<rect x="35" y="10" width="2.5" height="2.5" fill="rgb(14,0,240)" opacity="1"/>
<rect x="20" y="15" width="2.5" height="2.5" fill="rgb(120,0,134)" opacity="1"/>
<rect x="25" y="15" width="2.5" height="2.5" fill="rgb(113,0,141)" opacity="1"/>
<rect x="30" y="15" width="2.5" height="2.5" fill="rgb(96,0,158)" opacity="1"/>
<rect x="35" y="15" width="2.5" height="2.5" fill="rgb(54,0,200)" opacity="1"/>
<rect x="25" y="20" width="2.5" height="2.5" fill="rgb(255,0,0)" opacity="1"/>
<rect x="30" y="20" width="2.5" height="2.5" fill="rgb(152,0,102)" opacity="1"/>
<rect x="35" y="20" width="2.5" height="2.5" fill="rgb(80,0,174)" opacity="1"/>
<rect x="40" y="20" width="2.5" height="2.5" fill="rgb(84,0,170)" opacity="1"/>
<rect x="45" y="20" width="2.5" height="2.5" fill="rgb(15,0,239)" opacity="1"/>
<rect x="30" y="25" width="2.5" height="2.5" fill="rgb(254,0,0)" opacity="1"/>
<rect x="35" y="25" width="2.5" height="2.5" fill="rgb(136,0,118)" opacity="1"/>
<rect x="40" y="25" width="2.5" height="2.5" fill="rgb(106,0,148)" opacity="1"/>
<rect x="45" y="25" width="2.5" height="2.5" fill="rgb(73,0,181)" opacity="1"/>
<rect x="50" y="25" width="2.5" height="2.5" fill="rgb(39,0,215)" opacity="1"/>
<rect x="55" y="25" width="2.5" height="2.5" fill="rgb(6,0,248)" opacity="1"/>
<rect x="35" y="30" width="2.5" height="2.5" fill="rgb(240,0,14)" opacity="1"/>
<rect x="40" y="30" width="2.5" height="2.5" fill="rgb(125,0,129)" opacity="1"/>
<rect x="45" y="30" width="2.5" height="2.5" fill="rgb(111,0,143)" opacity="1"/>
<rect x="50" y="30" width="2.5" height="2.5" fill="rgb(92,0,162)" opacity="1"/>
<rect x="55" y="30" width="2.5" height="2.5" fill="rgb(57,0,197)" opacity="1"/>
<rect x="40" y="35" width="2.5" height="2.5" fill="rgb(116,0,138)" opacity="1"/>
<rect x="45" y="35" width="2.5" height="2.5" fill="rgb(124,0,130)" opacity="1"/>
<rect x="50" y="35" width="2.5" height="2.5" fill="rgb(137,0,117)" opacity="1"/>
<rect x="55" y="35" width="2.5" height="2.5" fill="rgb(109,0,145)" opacity="1"/>
<rect x="45" y="40" width="2.5" height="2.5" fill="rgb(200,0,54)" opacity="1"/>
<rect x="50" y="40" width="2.5" height="2.5" fill="rgb(135,0,119)" opacity="1"/>
<rect x="55" y="40" width="2.5" height="2.5" fill="rgb(76,0,178)" opacity="1"/>
<rect x="50" y="45" width="2.5" height="2.5" fill="rgb(159,0,95)" opacity="1"/>
<rect x="55" y="45" width="2.5" height="2.5" fill="rgb(105,0,149)" opacity="1"/>
<rect x="55" y="50" width="2.5" height="2.5" fill="rgb(137,0,117)" opacity="1"/>
<text x="65" y="5" font-size="5" fill="black">0</text>
<text x="65" y="55" font-size="5" fill="black">12</text>
<polyline points="65,10,65,50" stroke="black" stroke-width="1" fill="none" opacity="1"/>
<text x="5" y="65" font-size="5" fill="black">0</text>
<text x="55" y="65" font-size="5" fill="black">12</text>
<polyline points="10,65,50,65" stroke="black" stroke-width="1" fill="none" opacity="1"/>
</svg>