<?xml version="1.0" standalone="yes"?>
<!-- SVG graphic -->
<svg xmlns='http://www.w3.org/2000/svg' xmlns:xlink='http://www.w3.org/1999/xlink'
 version="1.1">
<rect x="0" y="6.15418e-06" width="6" height="200" stroke="black" stroke-width="1" fill="blue" opacity="1" tooltip="enable"><title>(0,4503)</title></rect><rect x="6" y="26.9154" width="6" height="173.085" stroke="black" stroke-width="1" fill="blue" opacity="1" tooltip="enable"><title>(0.0172935,3897)</title></rect><rect x="12" y="41.4835" width="6" height="158.517" stroke="black" stroke-width="1" fill="blue" opacity="1" tooltip="enable"><title>(0.0345869,3569)</title></rect><rect x="18" y="56.9842" width="6" height="143.016" stroke="black" stroke-width="1" fill="blue" opacity="1" tooltip="enable"><title>(0.0518804,3220)</title></rect><rect x="24" y="74.3949" width="6" height="125.605" stroke="black" stroke-width="1" fill="blue" opacity="1" tooltip="enable"><title>(0.0691738,2828)</title></rect><rect x="30" y="89.94" width="6" height="110.06" stroke="black" stroke-width="1" fill="blue" opacity="1" tooltip="enable"><title>(0.0864673,2478)</title></rect><rect x="36" y="104.153" width="6" height="95.8472" stroke="black" stroke-width="1" fill="blue" opacity="1" tooltip="enable"><title>(0.103761,2158)</title></rect><rect x="42" y="117.522" width="6" height="82.4783" stroke="black" stroke-width="1" fill="blue" opacity="1" tooltip="enable"><title>(0.121054,1857)</title></rect><rect x="48" y="129.558" width="6" height="70.4419" stroke="black" stroke-width="1" fill="blue" opacity="1" tooltip="enable"><title>(0.138348,1586)</title></rect><rect x="54" y="141.372" width="6" height="58.6276" stroke="black" stroke-width="1" fill="blue" opacity="1" tooltip="enable"><title>(0.155641,1320)</title></rect><rect x="60" y="149.323" width="6" height="50.6773" stroke="black" stroke-width="1" fill="blue" opacity="1" tooltip="enable"><title>(0.172935,1141)</title></rect><rect x="66" y="157.584" width="6" height="42.4162" stroke="black" stroke-width="1" fill="blue" opacity="1" tooltip="enable"><title>(0.190228,955)</title></rect><rect x="72" y="164.202" width="6" height="35.7984" stroke="black" stroke-width="1" fill="blue" opacity="1" tooltip="enable"><title>(0.207521,806)</title></rect><rect x="78" y="169.132" width="6" height="30.8683" stroke="black" stroke-width="1" fill="blue" opacity="1" tooltip="enable"><title>(0.224815,695)</title></rect><rect x="84" y="176.638" width="6" height="23.3622" stroke="black" stroke-width="1" fill="blue" opacity="1" tooltip="enable"><title>(0.242108,526)</title></rect><rect x="90" y="178.37" width="6" height="21.63" stroke="black" stroke-width="1" fill="blue" opacity="1" tooltip="enable"><title>(0.259402,487)</title></rect><rect x="96" y="180.457" width="6" height="19.5425" stroke="black" stroke-width="1" fill="blue" opacity="1" tooltip="enable"><title>(0.276695,440)</title></rect><rect x="102" y="184.588" width="6" height="15.4119" stroke="black" stroke-width="1" fill="blue" opacity="1" tooltip="enable"><title>(0.293989,347)</title></rect><rect x="108" y="186.231" width="6" height="13.7686" stroke="black" stroke-width="1" fill="blue" opacity="1" tooltip="enable"><title>(0.311282,310)</title></rect><rect x="114" y="187.786" width="6" height="12.2141" stroke="black" stroke-width="1" fill="blue" opacity="1" tooltip="enable"><title>(0.328576,275)</title></rect><rect x="120" y="190.184" width="6" height="9.81568" stroke="black" stroke-width="1" fill="blue" opacity="1" tooltip="enable"><title>(0.345869,221)</title></rect><rect x="126" y="191.561" width="6" height="8.43882" stroke="black" stroke-width="1" fill="blue" opacity="1" tooltip="enable"><title>(0.363163,190)</title></rect><rect x="132" y="191.65" width="6" height="8.34999" stroke="black" stroke-width="1" fill="blue" opacity="1" tooltip="enable"><title>(0.380456,188)</title></rect><rect x="138" y="193.96" width="6" height="6.04042" stroke="black" stroke-width="1" fill="blue" opacity="1" tooltip="enable"><title>(0.39775,136)</title></rect><rect x="144" y="192.538" width="6" height="7.46169" stroke="black" stroke-width="1" fill="blue" opacity="1" tooltip="enable"><title>(0.415043,168)</title></rect><rect x="150" y="194.892" width="6" height="5.10771" stroke="black" stroke-width="1" fill="blue" opacity="1" tooltip="enable"><title>(0.432336,115)</title></rect><rect x="156" y="196.047" width="6" height="3.95292" stroke="black" stroke-width="1" fill="blue" opacity="1" tooltip="enable"><title>(0.44963,89)</title></rect><rect x="162" y="196.713" width="6" height="3.2867" stroke="black" stroke-width="1" fill="blue" opacity="1" tooltip="enable"><title>(0.466923,74)</title></rect><rect x="168" y="196.847" width="6" height="3.15345" stroke="black" stroke-width="1" fill="blue" opacity="1" tooltip="enable"><title>(0.484217,71)</title></rect><rect x="174" y="196.891" width="6" height="3.10904" stroke="black" stroke-width="1" fill="blue" opacity="1" tooltip="enable"><title>(0.50151,70)</title></rect><rect x="180" y="197.779" width="6" height="2.22074" stroke="black" stroke-width="1" fill="blue" opacity="1" tooltip="enable"><title>(0.518804,50)</title></rect><rect x="186" y="197.157" width="6" height="2.84255" stroke="black" stroke-width="1" fill="blue" opacity="1" tooltip="enable"><title>(0.536097,64)</title></rect><rect x="192" y="197.913" width="6" height="2.0875" stroke="black" stroke-width="1" fill="blue" opacity="1" tooltip="enable"><title>(0.553391,47)</title></rect><rect x="198" y="198.046" width="6" height="1.95425" stroke="black" stroke-width="1" fill="blue" opacity="1" tooltip="enable"><title>(0.570684,44)</title></rect><rect x="204" y="198.09" width="6" height="1.90984" stroke="black" stroke-width="1" fill="blue" opacity="1" tooltip="enable"><title>(0.587978,43)</title></rect><rect x="210" y="198.223" width="6" height="1.77659" stroke="black" stroke-width="1" fill="blue" opacity="1" tooltip="enable"><title>(0.605271,40)</title></rect><rect x="216" y="198.801" width="6" height="1.1992" stroke="black" stroke-width="1" fill="blue" opacity="1" tooltip="enable"><title>(0.622565,27)</title></rect><rect x="222" y="198.756" width="6" height="1.24362" stroke="black" stroke-width="1" fill="blue" opacity="1" tooltip="enable"><title>(0.639858,28)</title></rect><rect x="228" y="198.801" width="6" height="1.1992" stroke="black" stroke-width="1" fill="blue" opacity="1" tooltip="enable"><title>(0.657151,27)</title></rect><rect x="234" y="199.334" width="6" height="0.666223" stroke="black" stroke-width="1" fill="blue" opacity="1" tooltip="enable"><title>(0.674445,15)</title></rect><rect x="240" y="199.245" width="6" height="0.755052" stroke="black" stroke-width="1" fill="blue" opacity="1" tooltip="enable"><title>(0.691738,17)</title></rect><rect x="246" y="199.112" width="6" height="0.888297" stroke="black" stroke-width="1" fill="blue" opacity="1" tooltip="enable"><title>(0.709032,20)</title></rect><rect x="252" y="199.112" width="6" height="0.888297" stroke="black" stroke-width="1" fill="blue" opacity="1" tooltip="enable"><title>(0.726325,20)</title></rect><rect x="258" y="199.467" width="6" height="0.532978" stroke="black" stroke-width="1" fill="blue" opacity="1" tooltip="enable"><title>(0.743619,12)</title></rect><rect x="264" y="199.378" width="6" height="0.621808" stroke="black" stroke-width="1" fill="blue" opacity="1" tooltip="enable"><title>(0.760912,14)</title></rect><rect x="270" y="199.467" width="6" height="0.532978" stroke="black" stroke-width="1" fill="blue" opacity="1" tooltip="enable"><title>(0.778206,12)</title></rect><rect x="276" y="199.067" width="6" height="0.932711" stroke="black" stroke-width="1" fill="blue" opacity="1" tooltip="enable"><title>(0.795499,21)</title></rect><rect x="282" y="199.511" width="6" height="0.488563" stroke="black" stroke-width="1" fill="blue" opacity="1" tooltip="enable"><title>(0.812793,11)</title></rect><rect x="288" y="199.423" width="6" height="0.577393" stroke="black" stroke-width="1" fill="blue" opacity="1" tooltip="enable"><title>(0.830086,13)</title></rect><rect x="294" y="199.645" width="6" height="0.355319" stroke="black" stroke-width="1" fill="blue" opacity="1" tooltip="enable"><title>(0.84738,8)</title></rect><rect x="300" y="199.689" width="6" height="0.310904" stroke="black" stroke-width="1" fill="blue" opacity="1" tooltip="enable"><title>(0.864673,7)</title></rect><rect x="306" y="199.556" width="6" height="0.444148" stroke="black" stroke-width="1" fill="blue" opacity="1" tooltip="enable"><title>(0.881966,10)</title></rect><rect x="312" y="199.689" width="6" height="0.310904" stroke="black" stroke-width="1" fill="blue" opacity="1" tooltip="enable"><title>(0.89926,7)</title></rect><rect x="318" y="199.734" width="6" height="0.266489" stroke="black" stroke-width="1" fill="blue" opacity="1" tooltip="enable"><title>(0.916553,6)</title></rect><rect x="324" y="199.6" width="6" height="0.399733" stroke="black" stroke-width="1" fill="blue" opacity="1" tooltip="enable"><title>(0.933847,9)</title></rect><rect x="330" y="199.556" width="6" height="0.444148" stroke="black" stroke-width="1" fill="blue" opacity="1" tooltip="enable"><title>(0.95114,10)</title></rect><rect x="336" y="199.734" width="6" height="0.266489" stroke="black" stroke-width="1" fill="blue" opacity="1" tooltip="enable"><title>(0.968434,6)</title></rect><rect x="342" y="199.778" width="6" height="0.222074" stroke="black" stroke-width="1" fill="blue" opacity="1" tooltip="enable"><title>(0.985727,5)</title></rect><rect x="348" y="199.778" width="6" height="0.222074" stroke="black" stroke-width="1" fill="blue" opacity="1" tooltip="enable"><title>(1.00302,5)</title></rect><rect x="354" y="199.911" width="6" height="0.0888297" stroke="black" stroke-width="1" fill="blue" opacity="1" tooltip="enable"><title>(1.02031,2)</title></rect><rect x="360" y="199.778" width="6" height="0.222074" stroke="black" stroke-width="1" fill="blue" opacity="1" tooltip="enable"><title>(1.03761,5)</title></rect><rect x="366" y="199.867" width="6" height="0.133244" stroke="black" stroke-width="1" fill="blue" opacity="1" tooltip="enable"><title>(1.0549,3)</title></rect><rect x="372" y="199.956" width="6" height="0.0444148" stroke="black" stroke-width="1" fill="blue" opacity="1" tooltip="enable"><title>(1.07219,1)</title></rect><rect x="378" y="199.778" width="6" height="0.222074" stroke="black" stroke-width="1" fill="blue" opacity="1" tooltip="enable"><title>(1.08949,5)</title></rect><rect x="384" y="199.911" width="6" height="0.0888297" stroke="black" stroke-width="1" fill="blue" opacity="1" tooltip="enable"><title>(1.10678,2)</title></rect><rect x="390" y="199.822" width="6" height="0.177659" stroke="black" stroke-width="1" fill="blue" opacity="1" tooltip="enable"><title>(1.12407,4)</title></rect><rect x="396" y="199.911" width="6" height="0.0888297" stroke="black" stroke-width="1" fill="blue" opacity="1" tooltip="enable"><title>(1.14137,2)</title></rect><rect x="402" y="199.956" width="6" height="0.0444148" stroke="black" stroke-width="1" fill="blue" opacity="1" tooltip="enable"><title>(1.15866,1)</title></rect><rect x="408" y="199.867" width="6" height="0.133244" stroke="black" stroke-width="1" fill="blue" opacity="1" tooltip="enable"><title>(1.17596,3)</title></rect><rect x="414" y="200" width="6" height="0" stroke="black" stroke-width="1" fill="blue" opacity="1" tooltip="enable"><title>(1.19325,0)</title></rect><rect x="420" y="199.956" width="6" height="0.0444148" stroke="black" stroke-width="1" fill="blue" opacity="1" tooltip="enable"><title>(1.21054,1)</title></rect><rect x="426" y="199.734" width="6" height="0.266489" stroke="black" stroke-width="1" fill="blue" opacity="1" tooltip="enable"><title>(1.22784,6)</title></rect><rect x="432" y="199.956" width="6" height="0.0444148" stroke="black" stroke-width="1" fill="blue" opacity="1" tooltip="enable"><title>(1.24513,1)</title></rect><rect x="438" y="199.956" width="6" height="0.0444148" stroke="black" stroke-width="1" fill="blue" opacity="1" tooltip="enable"><title>(1.26242,1)</title></rect><rect x="444" y="199.956" width="6" height="0.0444148" stroke="black" stroke-width="1" fill="blue" opacity="1" tooltip="enable"><title>(1.27972,1)</title></rect><rect x="450" y="199.911" width="6" height="0.0888297" stroke="black" stroke-width="1" fill="blue" opacity="1" tooltip="enable"><title>(1.29701,2)</title></rect><rect x="456" y="200" width="6" height="0" stroke="black" stroke-width="1" fill="blue" opacity="1" tooltip="enable"><title>(1.3143,0)</title></rect><rect x="462" y="199.867" width="6" height="0.133244" stroke="black" stroke-width="1" fill="blue" opacity="1" tooltip="enable"><title>(1.3316,3)</title></rect><rect x="468" y="200" width="6" height="0" stroke="black" stroke-width="1" fill="blue" opacity="1" tooltip="enable"><title>(1.34889,0)</title></rect><rect x="474" y="199.911" width="6" height="0.0888297" stroke="black" stroke-width="1" fill="blue" opacity="1" tooltip="enable"><title>(1.36618,2)</title></rect><rect x="480" y="199.867" width="6" height="0.133244" stroke="black" stroke-width="1" fill="blue" opacity="1" tooltip="enable"><title>(1.38348,3)</title></rect><rect x="486" y="200" width="6" height="0" stroke="black" stroke-width="1" fill="blue" opacity="1" tooltip="enable"><title>(1.40077,0)</title></rect><rect x="492" y="200" width="6" height="0" stroke="black" stroke-width="1" fill="blue" opacity="1" tooltip="enable"><title>(1.41806,0)</title></rect><rect x="498" y="199.956" width="6" height="0.0444148" stroke="black" stroke-width="1" fill="blue" opacity="1" tooltip="enable"><title>(1.43536,1)</title></rect><rect x="504" y="199.956" width="6" height="0.0444148" stroke="black" stroke-width="1" fill="blue" opacity="1" tooltip="enable"><title>(1.45265,1)</title></rect><rect x="510" y="200" width="6" height="0" stroke="black" stroke-width="1" fill="blue" opacity="1" tooltip="enable"><title>(1.46994,0)</title></rect><rect x="516" y="199.956" width="6" height="0.0444148" stroke="black" stroke-width="1" fill="blue" opacity="1" tooltip="enable"><title>(1.48724,1)</title></rect><rect x="522" y="200" width="6" height="0" stroke="black" stroke-width="1" fill="blue" opacity="1" tooltip="enable"><title>(1.50453,0)</title></rect><rect x="528" y="199.956" width="6" height="0.0444148" stroke="black" stroke-width="1" fill="blue" opacity="1" tooltip="enable"><title>(1.52182,1)</title></rect><rect x="534" y="200" width="6" height="0" stroke="black" stroke-width="1" fill="blue" opacity="1" tooltip="enable"><title>(1.53912,0)</title></rect><rect x="540" y="199.956" width="6" height="0.0444148" stroke="black" stroke-width="1" fill="blue" opacity="1" tooltip="enable"><title>(1.55641,1)</title></rect><rect x="546" y="199.956" width="6" height="0.0444148" stroke="black" stroke-width="1" fill="blue" opacity="1" tooltip="enable"><title>(1.5737,1)</title></rect><rect x="552" y="200" width="6" height="0" stroke="black" stroke-width="1" fill="blue" opacity="1" tooltip="enable"><title>(1.591,0)</title></rect><rect x="558" y="199.956" width="6" height="0.0444148" stroke="black" stroke-width="1" fill="blue" opacity="1" tooltip="enable"><title>(1.60829,1)</title></rect><rect x="564" y="199.956" width="6" height="0.0444148" stroke="black" stroke-width="1" fill="blue" opacity="1" tooltip="enable"><title>(1.62559,1)</title></rect><rect x="570" y="200" width="6" height="0" stroke="black" stroke-width="1" fill="blue" opacity="1" tooltip="enable"><title>(1.64288,0)</title></rect><rect x="576" y="200" width="6" height="0" stroke="black" stroke-width="1" fill="blue" opacity="1" tooltip="enable"><title>(1.66017,0)</title></rect><rect x="582" y="200" width="6" height="0" stroke="black" stroke-width="1" fill="blue" opacity="1" tooltip="enable"><title>(1.67747,0)</title></rect><rect x="588" y="199.956" width="6" height="0.0444148" stroke="black" stroke-width="1" fill="blue" opacity="1" tooltip="enable"><title>(1.69476,1)</title></rect><rect x="594" y="200" width="6" height="0" stroke="black" stroke-width="1" fill="blue" opacity="1" tooltip="enable"><title>(1.71205,0)</title></rect><text x="30" y="240" font-size="20" fill="black">0</text>
<text x="600" y="240" font-size="20" fill="black">1.72935</text>
<polyline points="0,220,600,220" stroke="black" stroke-width="1" fill="none" opacity="1"/>
<text x="720" y="20" font-size="20" fill="black">4503</text>
<text x="720" y="200" font-size="20" fill="black">0</text>
<polyline points="660,0,660,200" stroke="black" stroke-width="1" fill="none" opacity="1"/>
</svg>