<?xml version="1.0" standalone="yes"?>
<!-- SVG graphic -->
<svg xmlns='http://www.w3.org/2000/svg' xmlns:xlink='http://www.w3.org/1999/xlink'
 version="1.1">
<rect x="0" y="-2.44379e-06" width="6" height="200" stroke="black" stroke-width="1" fill="blue" opacity="1" tooltip="enable"><title>(0,964)</title></rect><rect x="6" y="9.3361" width="6" height="190.664" stroke="black" stroke-width="1" fill="blue" opacity="1" tooltip="enable"><title>(0.0168489,919)</title></rect><rect x="12" y="45.2282" width="6" height="154.772" stroke="black" stroke-width="1" fill="blue" opacity="1" tooltip="enable"><title>(0.0336977,746)</title></rect><rect x="18" y="69.2946" width="6" height="130.705" stroke="black" stroke-width="1" fill="blue" opacity="1" tooltip="enable"><title>(0.0505466,630)</title></rect><rect x="24" y="95.4357" width="6" height="104.564" stroke="black" stroke-width="1" fill="blue" opacity="1" tooltip="enable"><title>(0.0673955,504)</title></rect><rect x="30" y="125.104" width="6" height="74.8963" stroke="black" stroke-width="1" fill="blue" opacity="1" tooltip="enable"><title>(0.0842444,361)</title></rect><rect x="36" y="127.386" width="6" height="72.6141" stroke="black" stroke-width="1" fill="blue" opacity="1" tooltip="enable"><title>(0.101093,350)</title></rect><rect x="42" y="147.303" width="6" height="52.6971" stroke="black" stroke-width="1" fill="blue" opacity="1" tooltip="enable"><title>(0.117942,254)</title></rect><rect x="48" y="152.075" width="6" height="47.9253" stroke="black" stroke-width="1" fill="blue" opacity="1" tooltip="enable"><title>(0.134791,231)</title></rect><rect x="54" y="165.353" width="6" height="34.6473" stroke="black" stroke-width="1" fill="blue" opacity="1" tooltip="enable"><title>(0.15164,167)</title></rect><rect x="60" y="170.539" width="6" height="29.4606" stroke="black" stroke-width="1" fill="blue" opacity="1" tooltip="enable"><title>(0.168489,142)</title></rect><rect x="66" y="172.614" width="6" height="27.3859" stroke="black" stroke-width="1" fill="blue" opacity="1" tooltip="enable"><title>(0.185338,132)</title></rect><rect x="72" y="176.349" width="6" height="23.6515" stroke="black" stroke-width="1" fill="blue" opacity="1" tooltip="enable"><title>(0.202186,114)</title></rect><rect x="78" y="183.61" width="6" height="16.39" stroke="black" stroke-width="1" fill="blue" opacity="1" tooltip="enable"><title>(0.219035,79)</title></rect><rect x="84" y="184.232" width="6" height="15.7676" stroke="black" stroke-width="1" fill="blue" opacity="1" tooltip="enable"><title>(0.235884,76)</title></rect><rect x="90" y="187.759" width="6" height="12.2407" stroke="black" stroke-width="1" fill="blue" opacity="1" tooltip="enable"><title>(0.252733,59)</title></rect><rect x="96" y="190.664" width="6" height="9.3361" stroke="black" stroke-width="1" fill="blue" opacity="1" tooltip="enable"><title>(0.269582,45)</title></rect><rect x="102" y="191.494" width="6" height="8.50622" stroke="black" stroke-width="1" fill="blue" opacity="1" tooltip="enable"><title>(0.286431,41)</title></rect><rect x="108" y="193.568" width="6" height="6.43154" stroke="black" stroke-width="1" fill="blue" opacity="1" tooltip="enable"><title>(0.30328,31)</title></rect><rect x="114" y="193.361" width="6" height="6.639" stroke="black" stroke-width="1" fill="blue" opacity="1" tooltip="enable"><title>(0.320129,32)</title></rect><rect x="120" y="193.361" width="6" height="6.639" stroke="black" stroke-width="1" fill="blue" opacity="1" tooltip="enable"><title>(0.336977,32)</title></rect><rect x="126" y="196.058" width="6" height="3.94191" stroke="black" stroke-width="1" fill="blue" opacity="1" tooltip="enable"><title>(0.353826,19)</title></rect><rect x="132" y="197.303" width="6" height="2.6971" stroke="black" stroke-width="1" fill="blue" opacity="1" tooltip="enable"><title>(0.370675,13)</title></rect><rect x="138" y="196.266" width="6" height="3.73444" stroke="black" stroke-width="1" fill="blue" opacity="1" tooltip="enable"><title>(0.387524,18)</title></rect><rect x="144" y="196.473" width="6" height="3.52697" stroke="black" stroke-width="1" fill="blue" opacity="1" tooltip="enable"><title>(0.404373,17)</title></rect><rect x="150" y="196.058" width="6" height="3.94191" stroke="black" stroke-width="1" fill="blue" opacity="1" tooltip="enable"><title>(0.421222,19)</title></rect><rect x="156" y="197.718" width="6" height="2.28216" stroke="black" stroke-width="1" fill="blue" opacity="1" tooltip="enable"><title>(0.438071,11)</title></rect><rect x="162" y="197.925" width="6" height="2.07469" stroke="black" stroke-width="1" fill="blue" opacity="1" tooltip="enable"><title>(0.45492,10)</title></rect><rect x="168" y="197.925" width="6" height="2.07469" stroke="black" stroke-width="1" fill="blue" opacity="1" tooltip="enable"><title>(0.471768,10)</title></rect><rect x="174" y="198.548" width="6" height="1.45228" stroke="black" stroke-width="1" fill="blue" opacity="1" tooltip="enable"><title>(0.488617,7)</title></rect><rect x="180" y="197.925" width="6" height="2.07469" stroke="black" stroke-width="1" fill="blue" opacity="1" tooltip="enable"><title>(0.505466,10)</title></rect><rect x="186" y="199.585" width="6" height="0.414938" stroke="black" stroke-width="1" fill="blue" opacity="1" tooltip="enable"><title>(0.522315,2)</title></rect><rect x="192" y="198.34" width="6" height="1.65975" stroke="black" stroke-width="1" fill="blue" opacity="1" tooltip="enable"><title>(0.539164,8)</title></rect><rect x="198" y="198.133" width="6" height="1.86722" stroke="black" stroke-width="1" fill="blue" opacity="1" tooltip="enable"><title>(0.556013,9)</title></rect><rect x="204" y="199.585" width="6" height="0.414938" stroke="black" stroke-width="1" fill="blue" opacity="1" tooltip="enable"><title>(0.572862,2)</title></rect><rect x="210" y="199.378" width="6" height="0.622407" stroke="black" stroke-width="1" fill="blue" opacity="1" tooltip="enable"><title>(0.589711,3)</title></rect><rect x="216" y="199.378" width="6" height="0.622407" stroke="black" stroke-width="1" fill="blue" opacity="1" tooltip="enable"><title>(0.60656,3)</title></rect><rect x="222" y="198.34" width="6" height="1.65975" stroke="black" stroke-width="1" fill="blue" opacity="1" tooltip="enable"><title>(0.623408,8)</title></rect><rect x="228" y="199.793" width="6" height="0.207469" stroke="black" stroke-width="1" fill="blue" opacity="1" tooltip="enable"><title>(0.640257,1)</title></rect><rect x="234" y="199.793" width="6" height="0.207469" stroke="black" stroke-width="1" fill="blue" opacity="1" tooltip="enable"><title>(0.657106,1)</title></rect><rect x="240" y="200" width="6" height="0" stroke="black" stroke-width="1" fill="blue" opacity="1" tooltip="enable"><title>(0.673955,0)</title></rect><rect x="246" y="199.793" width="6" height="0.207469" stroke="black" stroke-width="1" fill="blue" opacity="1" tooltip="enable"><title>(0.690804,1)</title></rect><rect x="252" y="200" width="6" height="0" stroke="black" stroke-width="1" fill="blue" opacity="1" tooltip="enable"><title>(0.707653,0)</title></rect><rect x="258" y="199.793" width="6" height="0.207469" stroke="black" stroke-width="1" fill="blue" opacity="1" tooltip="enable"><title>(0.724502,1)</title></rect><rect x="264" y="199.793" width="6" height="0.207469" stroke="black" stroke-width="1" fill="blue" opacity="1" tooltip="enable"><title>(0.74135,1)</title></rect><rect x="270" y="199.585" width="6" height="0.414938" stroke="black" stroke-width="1" fill="blue" opacity="1" tooltip="enable"><title>(0.758199,2)</title></rect><rect x="276" y="199.585" width="6" height="0.414938" stroke="black" stroke-width="1" fill="blue" opacity="1" tooltip="enable"><title>(0.775048,2)</title></rect><rect x="282" y="200" width="6" height="0" stroke="black" stroke-width="1" fill="blue" opacity="1" tooltip="enable"><title>(0.791897,0)</title></rect><rect x="288" y="200" width="6" height="0" stroke="black" stroke-width="1" fill="blue" opacity="1" tooltip="enable"><title>(0.808746,0)</title></rect><rect x="294" y="199.793" width="6" height="0.207469" stroke="black" stroke-width="1" fill="blue" opacity="1" tooltip="enable"><title>(0.825595,1)</title></rect><rect x="300" y="199.793" width="6" height="0.207469" stroke="black" stroke-width="1" fill="blue" opacity="1" tooltip="enable"><title>(0.842444,1)</title></rect><rect x="306" y="200" width="6" height="0" stroke="black" stroke-width="1" fill="blue" opacity="1" tooltip="enable"><title>(0.859293,0)</title></rect><rect x="312" y="199.585" width="6" height="0.414938" stroke="black" stroke-width="1" fill="blue" opacity="1" tooltip="enable"><title>(0.876141,2)</title></rect><rect x="318" y="199.793" width="6" height="0.207469" stroke="black" stroke-width="1" fill="blue" opacity="1" tooltip="enable"><title>(0.89299,1)</title></rect><rect x="324" y="200" width="6" height="0" stroke="black" stroke-width="1" fill="blue" opacity="1" tooltip="enable"><title>(0.909839,0)</title></rect><rect x="330" y="199.585" width="6" height="0.414938" stroke="black" stroke-width="1" fill="blue" opacity="1" tooltip="enable"><title>(0.926688,2)</title></rect><rect x="336" y="199.793" width="6" height="0.207469" stroke="black" stroke-width="1" fill="blue" opacity="1" tooltip="enable"><title>(0.943537,1)</title></rect><rect x="342" y="200" width="6" height="0" stroke="black" stroke-width="1" fill="blue" opacity="1" tooltip="enable"><title>(0.960386,0)</title></rect><rect x="348" y="200" width="6" height="0" stroke="black" stroke-width="1" fill="blue" opacity="1" tooltip="enable"><title>(0.977235,0)</title></rect><rect x="354" y="200" width="6" height="0" stroke="black" stroke-width="1" fill="blue" opacity="1" tooltip="enable"><title>(0.994084,0)</title></rect><rect x="360" y="199.793" width="6" height="0.207469" stroke="black" stroke-width="1" fill="blue" opacity="1" tooltip="enable"><title>(1.01093,1)</title></rect><rect x="366" y="200" width="6" height="0" stroke="black" stroke-width="1" fill="blue" opacity="1" tooltip="enable"><title>(1.02778,0)</title></rect><rect x="372" y="200" width="6" height="0" stroke="black" stroke-width="1" fill="blue" opacity="1" tooltip="enable"><title>(1.04463,0)</title></rect><rect x="378" y="200" width="6" height="0" stroke="black" stroke-width="1" fill="blue" opacity="1" tooltip="enable"><title>(1.06148,0)</title></rect><rect x="384" y="199.585" width="6" height="0.414938" stroke="black" stroke-width="1" fill="blue" opacity="1" tooltip="enable"><title>(1.07833,2)</title></rect><rect x="390" y="199.793" width="6" height="0.207469" stroke="black" stroke-width="1" fill="blue" opacity="1" tooltip="enable"><title>(1.09518,1)</title></rect><rect x="396" y="199.793" width="6" height="0.207469" stroke="black" stroke-width="1" fill="blue" opacity="1" tooltip="enable"><title>(1.11203,1)</title></rect><rect x="402" y="200" width="6" height="0" stroke="black" stroke-width="1" fill="blue" opacity="1" tooltip="enable"><title>(1.12887,0)</title></rect><rect x="408" y="200" width="6" height="0" stroke="black" stroke-width="1" fill="blue" opacity="1" tooltip="enable"><title>(1.14572,0)</title></rect><rect x="414" y="200" width="6" height="0" stroke="black" stroke-width="1" fill="blue" opacity="1" tooltip="enable"><title>(1.16257,0)</title></rect><rect x="420" y="200" width="6" height="0" stroke="black" stroke-width="1" fill="blue" opacity="1" tooltip="enable"><title>(1.17942,0)</title></rect><rect x="426" y="200" width="6" height="0" stroke="black" stroke-width="1" fill="blue" opacity="1" tooltip="enable"><title>(1.19627,0)</title></rect><rect x="432" y="200" width="6" height="0" stroke="black" stroke-width="1" fill="blue" opacity="1" tooltip="enable"><title>(1.21312,0)</title></rect><rect x="438" y="200" width="6" height="0" stroke="black" stroke-width="1" fill="blue" opacity="1" tooltip="enable"><title>(1.22997,0)</title></rect><rect x="444" y="200" width="6" height="0" stroke="black" stroke-width="1" fill="blue" opacity="1" tooltip="enable"><title>(1.24682,0)</title></rect><rect x="450" y="200" width="6" height="0" stroke="black" stroke-width="1" fill="blue" opacity="1" tooltip="enable"><title>(1.26367,0)</title></rect><rect x="456" y="200" width="6" height="0" stroke="black" stroke-width="1" fill="blue" opacity="1" tooltip="enable"><title>(1.28051,0)</title></rect><rect x="462" y="200" width="6" height="0" stroke="black" stroke-width="1" fill="blue" opacity="1" tooltip="enable"><title>(1.29736,0)</title></rect><rect x="468" y="200" width="6" height="0" stroke="black" stroke-width="1" fill="blue" opacity="1" tooltip="enable"><title>(1.31421,0)</title></rect><rect x="474" y="200" width="6" height="0" stroke="black" stroke-width="1" fill="blue" opacity="1" tooltip="enable"><title>(1.33106,0)</title></rect><rect x="480" y="199.793" width="6" height="0.207469" stroke="black" stroke-width="1" fill="blue" opacity="1" tooltip="enable"><title>(1.34791,1)</title></rect><rect x="486" y="200" width="6" height="0" stroke="black" stroke-width="1" fill="blue" opacity="1" tooltip="enable"><title>(1.36476,0)</title></rect><rect x="492" y="199.585" width="6" height="0.414938" stroke="black" stroke-width="1" fill="blue" opacity="1" tooltip="enable"><title>(1.38161,2)</title></rect><rect x="498" y="200" width="6" height="0" stroke="black" stroke-width="1" fill="blue" opacity="1" tooltip="enable"><title>(1.39846,0)</title></rect><rect x="504" y="200" width="6" height="0" stroke="black" stroke-width="1" fill="blue" opacity="1" tooltip="enable"><title>(1.41531,0)</title></rect><rect x="510" y="200" width="6" height="0" stroke="black" stroke-width="1" fill="blue" opacity="1" tooltip="enable"><title>(1.43215,0)</title></rect><rect x="516" y="200" width="6" height="0" stroke="black" stroke-width="1" fill="blue" opacity="1" tooltip="enable"><title>(1.449,0)</title></rect><rect x="522" y="200" width="6" height="0" stroke="black" stroke-width="1" fill="blue" opacity="1" tooltip="enable"><title>(1.46585,0)</title></rect><rect x="528" y="200" width="6" height="0" stroke="black" stroke-width="1" fill="blue" opacity="1" tooltip="enable"><title>(1.4827,0)</title></rect><rect x="534" y="200" width="6" height="0" stroke="black" stroke-width="1" fill="blue" opacity="1" tooltip="enable"><title>(1.49955,0)</title></rect><rect x="540" y="200" width="6" height="0" stroke="black" stroke-width="1" fill="blue" opacity="1" tooltip="enable"><title>(1.5164,0)</title></rect><rect x="546" y="200" width="6" height="0" stroke="black" stroke-width="1" fill="blue" opacity="1" tooltip="enable"><title>(1.53325,0)</title></rect><rect x="552" y="200" width="6" height="0" stroke="black" stroke-width="1" fill="blue" opacity="1" tooltip="enable"><title>(1.5501,0)</title></rect><rect x="558" y="200" width="6" height="0" stroke="black" stroke-width="1" fill="blue" opacity="1" tooltip="enable"><title>(1.56695,0)</title></rect><rect x="564" y="200" width="6" height="0" stroke="black" stroke-width="1" fill="blue" opacity="1" tooltip="enable"><title>(1.58379,0)</title></rect><rect x="570" y="200" width="6" height="0" stroke="black" stroke-width="1" fill="blue" opacity="1" tooltip="enable"><title>(1.60064,0)</title></rect><rect x="576" y="200" width="6" height="0" stroke="black" stroke-width="1" fill="blue" opacity="1" tooltip="enable"><title>(1.61749,0)</title></rect><rect x="582" y="200" width="6" height="0" stroke="black" stroke-width="1" fill="blue" opacity="1" tooltip="enable"><title>(1.63434,0)</title></rect><rect x="588" y="200" width="6" height="0" stroke="black" stroke-width="1" fill="blue" opacity="1" tooltip="enable"><title>(1.65119,0)</title></rect><rect x="594" y="200" width="6" height="0" stroke="black" stroke-width="1" fill="blue" opacity="1" tooltip="enable"><title>(1.66804,0)</title></rect><text x="30" y="240" font-size="20" fill="black">0</text>
<text x="600" y="240" font-size="20" fill="black">1.68489</text>
<polyline points="0,220,600,220" stroke="black" stroke-width="1" fill="none" opacity="1"/>
<text x="720" y="20" font-size="20" fill="black">964</text>
<text x="720" y="200" font-size="20" fill="black">0</text>
<polyline points="660,0,660,200" stroke="black" stroke-width="1" fill="none" opacity="1"/>
</svg>